Exact Audio Copy V0.99 prebeta 1 from 25. May 2007

EAC 抓取日志文件从24. 二月 2011, 19:07

郁钧剑 / 20世纪中华歌坛名人百集珍藏版

使用驱动器  ：PIONEER DVD-RW  DVR-115   Adapter: 0  ID: 0

读取模式     : 保护
使用精确流   : 是
废除音频缓冲 : 是
使用 C2 指针 : 否

组合读/写偏移校正              : 48
读取 Lead-In 和 Lead-Out       : 否
用静音填充抓取中丢失偏移的采样 : 是
去除首尾静音块                 : 否
已用接口                       : Win NT 及 2000 本地 Win32 接口

所用输出格式 : 内部 WAV 函数
样本格式     : 44.100 Hz;16 Bit;立体声
使用压缩偏移 : 48


被抓轨 CD 的 TOC

     音轨 |   开始   |   长度   | 起始扇区 | 结尾扇区 
    --------------------------------------------------
       1  |  0:00.00 |  2:35.62 |       0  |   11686  
       2  |  2:35.62 |  3:41.33 |   11687  |   28294  
       3  |  6:17.20 |  3:45.05 |   28295  |   45174  
       4  | 10:02.25 |  3:46.12 |   45175  |   62136  
       5  | 13:48.37 |  3:35.65 |   62137  |   78326  
       6  | 17:24.27 |  3:18.03 |   78327  |   93179  
       7  | 20:42.30 |  3:20.27 |   93180  |  108206  
       8  | 24:02.57 |  3:29.20 |  108207  |  123901  
       9  | 27:32.02 |  4:27.03 |  123902  |  143929  
      10  | 31:59.05 |  2:28.12 |  143930  |  155041  
      11  | 34:27.17 |  3:24.65 |  155042  |  170406  
      12  | 37:52.07 |  2:27.70 |  170407  |  181501  
      13  | 40:20.02 |  3:09.43 |  181502  |  195719  
      14  | 43:29.45 |  4:43.17 |  195720  |  216961  
      15  | 48:12.62 |  4:55.15 |  216962  |  239101  
      16  | 53:08.02 |  4:49.20 |  239102  |  260796  
      17  | 57:57.22 |  2:57.28 |  260797  |  274099  
      18  | 60:54.50 |  3:12.25 |  274100  |  288524  


范围状态及错误

已选择范围

     文件名 E:\20世纪中华歌坛名人百集珍藏版-郁钧剑[lwg188原创]\郁钧剑 - 20世纪中华歌坛名人百集珍藏版.wav

     峰值电平 98.0 %
     范围质量 100.0 %
     复制 CRC 690F9757
     复制成功

没有错误发生

状态报告结尾
